# xmcd
# 
# Track frame offsets:
#     150
#     17520
#     37535
#     50145
#     59867
#     88045
#     110285
#     123665
#     135177
# 
# Disc length: 2474
# 
# Revision: 3
# Processed by: cddbd v1.5.2PL0 Copyright (c) Steve Scherf et al.
# Submitted via: fre:ac v1.0.31
# 
DISCID=7109a809
DTITLE=Skid Row - Skid
DYEAR=1970
DGENRE=Blues Rock
TTITLE0=Mad Dog Woman
TTITLE1=Virgo's Daughter
TTITLE2=Heading Home Again
TTITLE3=An Awful Lot of Woman
TTITLE4=Unco-Up Showband Blues
TTITLE5=For Those Who Do
TTITLE6=After I'm Gone
TTITLE7=The Man Who Never Was
TTITLE8=Felicity
EXTD=YEAR: 1970
EXTT0=
EXTT1=
EXTT2=
EXTT3=
EXTT4=
EXTT5=
EXTT6=
EXTT7=
EXTT8=
PLAYORDER=
